Coordinates
version=1
nRows=53
nColumns=11
inDegrees=yes

Units are S.I. units (second, meters, Newtons, ...)
If the header above contains a line with 'inDegrees', this indicates whether rotational values are in degrees (yes) or radians (no).

endheader
time	pelvis_tilt	pelvis_tx	pelvis_ty	hip_flexion_l	hip_flexion_r	knee_angle_l	knee_angle_r	ankle_angle_l	ankle_angle_r	lumbar_extension
      2.40000000	     -0.33818705	      0.13440221	      0.88261377	      4.00235021	     23.32755640	    -57.81326949	    -33.85426892	    -19.50962155	      6.07992331	     -0.16327654
      2.41000000	     -0.67749577	      0.14562919	      0.88338659	      5.84536009	     22.74208747	    -60.10702288	    -33.65664562	    -18.96196835	      6.74765118	      0.09892979
      2.42000000	     -1.03738608	      0.15595394	      0.88443997	      7.86266299	     22.14951424	    -62.26962798	    -33.25499625	    -17.03343856	      7.19534801	      0.29426488
      2.43000000	     -1.32607472	      0.16662137	      0.88581264	      9.75907718	     21.35144933	    -64.03314983	    -32.66394479	    -14.88115939	      7.55686230	      0.49119441
      2.44000000	     -1.53230132	      0.17662695	      0.88756813	     11.62896927	     20.47742072	    -65.52997512	    -31.98441662	    -13.08711165	      7.75801472	      0.51101834
      2.45000000	     -1.73965425	      0.18725062	      0.88934143	     13.44894773	     19.50652515	    -66.65817622	    -31.22132261	    -11.68819337	      7.97603477	      0.63994144
      2.46000000	     -1.89736670	      0.19755565	      0.89132374	     15.22352859	     18.43186952	    -67.51378992	    -30.28276310	    -10.29183009	      8.02419799	      0.68167569
      2.47000000	     -1.98198768	      0.20776846	      0.89337355	     16.90204516	     17.28659830	    -68.07185194	    -29.34164169	     -9.18866190	      8.04597296	      0.63298639
      2.48000000	     -2.08626611	      0.21759666	      0.89543842	     18.62291699	     16.23967508	    -68.46854671	    -28.47867062	     -8.09112466	      7.95199945	      0.56467188
      2.49000000	     -2.11280687	      0.22734689	      0.89759183	     20.24113442	     15.10828714	    -68.58676400	    -27.58122267	     -7.16659679	      7.75162851	      0.40236997
      2.50000000	     -2.09790690	      0.23698713	      0.89969433	     21.78741579	     13.98483473	    -68.45150475	    -26.75334124	     -6.29847636	      7.54411968	      0.18147590
      2.51000000	     -2.10263105	      0.24659153	      0.90165277	     23.31586947	     12.91093079	    -68.10263533	    -25.96292403	     -5.39206352	      7.24075068	     -0.01774448
      2.52000000	     -2.09257434	      0.25612069	      0.90355070	     24.78134648	     11.91109801	    -67.52053083	    -25.31522064	     -4.45619800	      7.05624737	     -0.24085279
      2.53000000	     -2.04388272	      0.26560030	      0.90538345	     26.16893003	     10.93251242	    -66.68157497	    -24.73652383	     -3.68394181	      6.69704305	     -0.50963618
      2.54000000	     -1.99610048	      0.27493844	      0.90703487	     27.51095881	     10.02060354	    -65.67556292	    -24.28931192	     -2.79157949	      6.45020278	     -0.79785448
      2.55000000	     -1.94385263	      0.28417953	      0.90853113	     28.79770262	      9.18514973	    -64.41296302	    -23.98318759	     -2.16365870	      6.12159650	     -1.09131654
      2.56000000	     -1.86682370	      0.29341678	      0.90984739	     29.97961701	      8.34588406	    -62.95284334	    -23.65867548	     -1.58141450	      5.72749280	     -1.41111196
      2.57000000	     -1.83362461	      0.30249806	      0.91088358	     31.15353902	      7.67398634	    -61.30891580	    -23.60465004	     -0.99085443	      5.50505015	     -1.71264534
      2.58000000	     -1.66312377	      0.31170062	      0.91187546	     32.06997027	      6.85352186	    -59.47874130	    -23.55467928	     -0.52812769	      5.35470366	     -2.14289529
      2.59000000	     -1.56770807	      0.32089389	      0.91247423	     32.98680460	      6.19333591	    -57.47047362	    -23.65936272	     -0.23115450	      5.24020969	     -2.48018126
      2.60000000	     -1.46322342	      0.32997472	      0.91285355	     33.82127056	      5.51391097	    -55.27588032	    -23.74219784	     -0.23159999	      5.12785680	     -2.84605642
      2.61000000	     -1.24002314	      0.33923920	      0.91315410	     34.40037214	      4.75659823	    -52.91351500	    -23.96234556	     -0.20856338	      5.03972238	     -3.33841844
      2.62000000	     -1.14244672	      0.34861372	      0.91294041	     35.01148826	      4.18046986	    -50.41560773	    -24.28932660	     -0.23247571	      4.96607453	     -3.65613904
      2.63000000	     -1.00752701	      0.35822371	      0.91252838	     35.46866597	      3.53979828	    -47.75313707	    -24.59503476	     -0.49063741	      5.01573686	     -3.98596281
      2.64000000	     -0.85463007	      0.36779529	      0.91194551	     35.81393489	      2.91860420	    -45.00473604	    -24.99452943	     -0.75687029	      5.25129880	     -4.34801140
      2.65000000	     -0.71959643	      0.37742212	      0.91112391	     36.04864338	      2.31274727	    -42.09559300	    -25.40254160	     -1.16344557	      5.35670821	     -4.68461859
      2.66000000	     -0.53029030	      0.38738041	      0.91009343	     36.09962948	      1.62459381	    -39.09902315	    -25.80156053	     -1.65083574	      5.53430870	     -5.03038248
      2.67000000	     -0.35967502	      0.39743473	      0.90898802	     36.05261083	      0.90756438	    -35.99248797	    -26.12419030	     -2.41843502	      5.62434934	     -5.36282936
      2.68000000	     -0.13462723	      0.40769823	      0.90773524	     35.86754454	      0.23320182	    -32.91854512	    -26.65482026	     -3.26644589	      5.79421543	     -5.72456186
      2.69000000	      0.00196735	      0.41805436	      0.90632701	     35.69163753	     -0.49849176	    -29.84805575	    -26.93423456	     -4.20058690	      5.87333929	     -5.96126373
      2.70000000	      0.22755694	      0.42867848	      0.90489510	     35.36059940	     -1.28611972	    -26.93431949	    -27.30407245	     -4.78497159	      5.86989967	     -6.27849802
      2.71000000	      0.37477840	      0.43934555	      0.90324975	     35.13483267	     -1.92752005	    -24.32738872	    -27.81137102	     -5.27879456	      5.99644259	     -6.48428816
      2.72000000	      0.48127716	      0.45022340	      0.90152883	     34.89776825	     -2.55273131	    -21.97109058	    -28.27877316	     -5.58413014	      6.04197730	     -6.63085105
      2.73000000	      0.62456008	      0.46121830	      0.89981393	     34.64579338	     -3.22396132	    -20.00723287	    -28.73103311	     -5.71701372	      6.02136223	     -6.82248565
      2.74000000	      0.71189030	      0.47233953	      0.89807620	     34.42199035	     -3.81676307	    -18.39134374	    -29.19496362	     -5.72709282	      5.88861464	     -6.93252034
      2.75000000	      0.75815837	      0.48361528	      0.89625315	     34.26733933	     -4.40018790	    -17.22944569	    -29.62259127	     -5.65328764	      5.77512636	     -6.98411457
      2.76000000	      0.86797462	      0.49526205	      0.89457257	     34.05597329	     -5.10267287	    -16.53708484	    -29.99307501	     -5.50558484	      5.57432475	     -7.09356738
      2.77000000	      0.91397280	      0.50698439	      0.89283485	     33.94922432	     -5.76711251	    -16.31749792	    -30.29978146	     -5.38641791	      5.20445023	     -7.10648240
      2.78000000	      0.99443993	      0.51907806	      0.89123508	     33.79394172	     -6.50131285	    -16.51505798	    -30.56414258	     -5.22961991	      4.75057276	     -7.17664700
      2.79000000	      0.96366934	      0.53153130	      0.88956491	     33.73921033	     -7.29873411	    -17.10485613	    -30.49206134	     -5.30239826	      4.12915991	     -7.03049414
      2.80000000	      0.80263503	      0.54407852	      0.88778676	     33.81127240	     -7.91683433	    -18.04667597	    -30.51519453	     -5.46267157	      3.60848370	     -6.75147891
      2.81000000	      0.40595015	      0.55647702	      0.88607657	     34.25115566	     -8.30282996	    -19.23775816	    -30.40341120	     -7.64262072	      2.80666253	     -6.22076705
      2.82000000	     -0.19676473	      0.56867675	      0.88474387	     35.19337581	     -8.45461319	    -20.83532431	    -30.21807607	     -9.84589987	      1.80136952	     -5.51512354
      2.83000000	     -0.78038324	      0.58105297	      0.88356932	     36.44946525	     -8.65292476	    -23.36719113	    -29.98329243	     -9.08714538	      0.72285469	     -4.78348687
      2.84000000	     -1.14537266	      0.59373341	      0.88274337	     37.69547859	     -9.12502790	    -26.33223199	    -29.67289777	     -7.86922895	     -0.43381814	     -4.25163178
      2.85000000	     -1.39597636	      0.60612781	      0.88218385	     38.59833466	     -9.61998051	    -28.76536444	    -29.45361519	     -7.52595693	     -1.80262194	     -3.91620157
      2.86000000	     -1.55548547	      0.61907575	      0.88190291	     38.99834562	    -10.23019280	    -30.44561095	    -29.21776635	     -6.91035414	     -3.26557834	     -3.56369957
      2.87000000	     -1.70918694	      0.63209925	      0.88201520	     39.12467463	    -10.77171770	    -31.72084552	    -29.06425474	     -6.12822458	     -4.99298128	     -3.28555374
      2.88000000	     -1.96978101	      0.64520351	      0.88237116	     39.19851351	    -11.02621466	    -32.94906470	    -29.15701444	     -5.25915438	     -6.83279377	     -2.84291806
      2.89000000	     -2.31766243	      0.65830120	      0.88295078	     39.27221464	    -10.95312012	    -34.12614172	    -29.56159330	     -4.16611878	     -8.91319637	     -2.31550933
      2.90000000	     -2.72349446	      0.67135045	      0.88389172	     39.29635470	    -10.56209308	    -35.06838609	    -30.30912362	     -3.09715661	    -11.02212771	     -1.73030822
      2.91000000	     -3.12672820	      0.68415538	      0.88501390	     39.20125984	     -9.98714159	    -35.74112734	    -31.21064530	     -2.20977055	    -13.29991936	     -1.19550284
      2.92000000	     -3.49868373	      0.69663980	      0.88634104	     38.99589023	     -9.26830041	    -36.22173791	    -32.27048877	     -1.37989845	    -15.72145237	     -0.73118529
